<svg xmlns="http://www.w3.org/2000/svg" viewBox="0 0 150 155">
  <rect width="150" height="155" fill="#1C2B4B"/>
  <circle cx="75" cy="14" r="6" fill="#C9962A"/>
  <rect x="72" y="20" width="6" height="14" rx="2" fill="#C9962A"/>
  <polygon points="75,34 45,64 105,64" fill="#FFFFFF"/>
  <polygon points="45,64 105,64 119,84 31,84" fill="#FFFFFF"/>
  <polygon points="31,84 119,84 137,106 13,106" fill="#FFFFFF"/>
  <rect x="13" y="106" width="124" height="7" rx="1" fill="rgba(255,255,255,0.4)"/>
  <circle cx="50" cy="127" r="9" fill="#C9962A"/>
  <rect x="41" y="136" width="18" height="19" rx="4" fill="#C9962A"/>
  <circle cx="100" cy="127" r="9" fill="#C9962A"/>
  <rect x="91" y="136" width="18" height="19" rx="4" fill="#C9962A"/>
  <polygon points="75,130 80,135 75,140 70,135" fill="#FFFFFF"/>
</svg>
